%TF.GenerationSoftware,KiCad,Pcbnew,10.0.3*%
%TF.CreationDate,2026-06-30T05:56:45-04:00*%
%TF.ProjectId,SQ80_Hardware_Programmer,53513830-5f48-4617-9264-776172655f50,rev?*%
%TF.SameCoordinates,Original*%
%TF.FileFunction,Legend,Bot*%
%TF.FilePolarity,Positive*%
%FSLAX46Y46*%
G04 Gerber Fmt 4.6, Leading zero omitted, Abs format (unit mm)*
G04 Created by KiCad (PCBNEW 10.0.3) date 2026-06-30 05:56:45*
%MOMM*%
%LPD*%
G01*
G04 APERTURE LIST*
%ADD10C,0.100000*%
%ADD11C,0.150000*%
%ADD12C,0.120000*%
%ADD13C,0.152400*%
%ADD14C,0.508000*%
G04 APERTURE END LIST*
D10*
X139844687Y-55012419D02*
X140178020Y-54536228D01*
X140416115Y-55012419D02*
X140416115Y-54012419D01*
X140416115Y-54012419D02*
X140035163Y-54012419D01*
X140035163Y-54012419D02*
X139939925Y-54060038D01*
X139939925Y-54060038D02*
X139892306Y-54107657D01*
X139892306Y-54107657D02*
X139844687Y-54202895D01*
X139844687Y-54202895D02*
X139844687Y-54345752D01*
X139844687Y-54345752D02*
X139892306Y-54440990D01*
X139892306Y-54440990D02*
X139939925Y-54488609D01*
X139939925Y-54488609D02*
X140035163Y-54536228D01*
X140035163Y-54536228D02*
X140416115Y-54536228D01*
X138987544Y-54012419D02*
X139178020Y-54012419D01*
X139178020Y-54012419D02*
X139273258Y-54060038D01*
X139273258Y-54060038D02*
X139320877Y-54107657D01*
X139320877Y-54107657D02*
X139416115Y-54250514D01*
X139416115Y-54250514D02*
X139463734Y-54440990D01*
X139463734Y-54440990D02*
X139463734Y-54821942D01*
X139463734Y-54821942D02*
X139416115Y-54917180D01*
X139416115Y-54917180D02*
X139368496Y-54964800D01*
X139368496Y-54964800D02*
X139273258Y-55012419D01*
X139273258Y-55012419D02*
X139082782Y-55012419D01*
X139082782Y-55012419D02*
X138987544Y-54964800D01*
X138987544Y-54964800D02*
X138939925Y-54917180D01*
X138939925Y-54917180D02*
X138892306Y-54821942D01*
X138892306Y-54821942D02*
X138892306Y-54583847D01*
X138892306Y-54583847D02*
X138939925Y-54488609D01*
X138939925Y-54488609D02*
X138987544Y-54440990D01*
X138987544Y-54440990D02*
X139082782Y-54393371D01*
X139082782Y-54393371D02*
X139273258Y-54393371D01*
X139273258Y-54393371D02*
X139368496Y-54440990D01*
X139368496Y-54440990D02*
X139416115Y-54488609D01*
X139416115Y-54488609D02*
X139463734Y-54583847D01*
D11*
X104076904Y-35349819D02*
X104076904Y-36159342D01*
X104076904Y-36159342D02*
X104029285Y-36254580D01*
X104029285Y-36254580D02*
X103981666Y-36302200D01*
X103981666Y-36302200D02*
X103886428Y-36349819D01*
X103886428Y-36349819D02*
X103695952Y-36349819D01*
X103695952Y-36349819D02*
X103600714Y-36302200D01*
X103600714Y-36302200D02*
X103553095Y-36254580D01*
X103553095Y-36254580D02*
X103505476Y-36159342D01*
X103505476Y-36159342D02*
X103505476Y-35349819D01*
X103124523Y-35349819D02*
X102505476Y-35349819D01*
X102505476Y-35349819D02*
X102838809Y-35730771D01*
X102838809Y-35730771D02*
X102695952Y-35730771D01*
X102695952Y-35730771D02*
X102600714Y-35778390D01*
X102600714Y-35778390D02*
X102553095Y-35826009D01*
X102553095Y-35826009D02*
X102505476Y-35921247D01*
X102505476Y-35921247D02*
X102505476Y-36159342D01*
X102505476Y-36159342D02*
X102553095Y-36254580D01*
X102553095Y-36254580D02*
X102600714Y-36302200D01*
X102600714Y-36302200D02*
X102695952Y-36349819D01*
X102695952Y-36349819D02*
X102981666Y-36349819D01*
X102981666Y-36349819D02*
X103076904Y-36302200D01*
X103076904Y-36302200D02*
X103124523Y-36254580D01*
X120079819Y-43708333D02*
X119603628Y-43375000D01*
X120079819Y-43136905D02*
X119079819Y-43136905D01*
X119079819Y-43136905D02*
X119079819Y-43517857D01*
X119079819Y-43517857D02*
X119127438Y-43613095D01*
X119127438Y-43613095D02*
X119175057Y-43660714D01*
X119175057Y-43660714D02*
X119270295Y-43708333D01*
X119270295Y-43708333D02*
X119413152Y-43708333D01*
X119413152Y-43708333D02*
X119508390Y-43660714D01*
X119508390Y-43660714D02*
X119556009Y-43613095D01*
X119556009Y-43613095D02*
X119603628Y-43517857D01*
X119603628Y-43517857D02*
X119603628Y-43136905D01*
X119079819Y-44041667D02*
X119079819Y-44660714D01*
X119079819Y-44660714D02*
X119460771Y-44327381D01*
X119460771Y-44327381D02*
X119460771Y-44470238D01*
X119460771Y-44470238D02*
X119508390Y-44565476D01*
X119508390Y-44565476D02*
X119556009Y-44613095D01*
X119556009Y-44613095D02*
X119651247Y-44660714D01*
X119651247Y-44660714D02*
X119889342Y-44660714D01*
X119889342Y-44660714D02*
X119984580Y-44613095D01*
X119984580Y-44613095D02*
X120032200Y-44565476D01*
X120032200Y-44565476D02*
X120079819Y-44470238D01*
X120079819Y-44470238D02*
X120079819Y-44184524D01*
X120079819Y-44184524D02*
X120032200Y-44089286D01*
X120032200Y-44089286D02*
X119984580Y-44041667D01*
X75666666Y-55229819D02*
X75999999Y-54753628D01*
X76238094Y-55229819D02*
X76238094Y-54229819D01*
X76238094Y-54229819D02*
X75857142Y-54229819D01*
X75857142Y-54229819D02*
X75761904Y-54277438D01*
X75761904Y-54277438D02*
X75714285Y-54325057D01*
X75714285Y-54325057D02*
X75666666Y-54420295D01*
X75666666Y-54420295D02*
X75666666Y-54563152D01*
X75666666Y-54563152D02*
X75714285Y-54658390D01*
X75714285Y-54658390D02*
X75761904Y-54706009D01*
X75761904Y-54706009D02*
X75857142Y-54753628D01*
X75857142Y-54753628D02*
X76238094Y-54753628D01*
X75285713Y-54325057D02*
X75238094Y-54277438D01*
X75238094Y-54277438D02*
X75142856Y-54229819D01*
X75142856Y-54229819D02*
X74904761Y-54229819D01*
X74904761Y-54229819D02*
X74809523Y-54277438D01*
X74809523Y-54277438D02*
X74761904Y-54325057D01*
X74761904Y-54325057D02*
X74714285Y-54420295D01*
X74714285Y-54420295D02*
X74714285Y-54515533D01*
X74714285Y-54515533D02*
X74761904Y-54658390D01*
X74761904Y-54658390D02*
X75333332Y-55229819D01*
X75333332Y-55229819D02*
X74714285Y-55229819D01*
X214034104Y-48765714D02*
X214034104Y-49241904D01*
X214319819Y-48670476D02*
X213319819Y-49003809D01*
X213319819Y-49003809D02*
X214319819Y-49337142D01*
X214319819Y-50194285D02*
X214319819Y-49622857D01*
X214319819Y-49908571D02*
X213319819Y-49908571D01*
X213319819Y-49908571D02*
X213462676Y-49813333D01*
X213462676Y-49813333D02*
X213557914Y-49718095D01*
X213557914Y-49718095D02*
X213605533Y-49622857D01*
X253959819Y-48218095D02*
X254769342Y-48218095D01*
X254769342Y-48218095D02*
X254864580Y-48265714D01*
X254864580Y-48265714D02*
X254912200Y-48313333D01*
X254912200Y-48313333D02*
X254959819Y-48408571D01*
X254959819Y-48408571D02*
X254959819Y-48599047D01*
X254959819Y-48599047D02*
X254912200Y-48694285D01*
X254912200Y-48694285D02*
X254864580Y-48741904D01*
X254864580Y-48741904D02*
X254769342Y-48789523D01*
X254769342Y-48789523D02*
X253959819Y-48789523D01*
X254912200Y-49218095D02*
X254959819Y-49360952D01*
X254959819Y-49360952D02*
X254959819Y-49599047D01*
X254959819Y-49599047D02*
X254912200Y-49694285D01*
X254912200Y-49694285D02*
X254864580Y-49741904D01*
X254864580Y-49741904D02*
X254769342Y-49789523D01*
X254769342Y-49789523D02*
X254674104Y-49789523D01*
X254674104Y-49789523D02*
X254578866Y-49741904D01*
X254578866Y-49741904D02*
X254531247Y-49694285D01*
X254531247Y-49694285D02*
X254483628Y-49599047D01*
X254483628Y-49599047D02*
X254436009Y-49408571D01*
X254436009Y-49408571D02*
X254388390Y-49313333D01*
X254388390Y-49313333D02*
X254340771Y-49265714D01*
X254340771Y-49265714D02*
X254245533Y-49218095D01*
X254245533Y-49218095D02*
X254150295Y-49218095D01*
X254150295Y-49218095D02*
X254055057Y-49265714D01*
X254055057Y-49265714D02*
X254007438Y-49313333D01*
X254007438Y-49313333D02*
X253959819Y-49408571D01*
X253959819Y-49408571D02*
X253959819Y-49646666D01*
X253959819Y-49646666D02*
X254007438Y-49789523D01*
X254436009Y-50551428D02*
X254483628Y-50694285D01*
X254483628Y-50694285D02*
X254531247Y-50741904D01*
X254531247Y-50741904D02*
X254626485Y-50789523D01*
X254626485Y-50789523D02*
X254769342Y-50789523D01*
X254769342Y-50789523D02*
X254864580Y-50741904D01*
X254864580Y-50741904D02*
X254912200Y-50694285D01*
X254912200Y-50694285D02*
X254959819Y-50599047D01*
X254959819Y-50599047D02*
X254959819Y-50218095D01*
X254959819Y-50218095D02*
X253959819Y-50218095D01*
X253959819Y-50218095D02*
X253959819Y-50551428D01*
X253959819Y-50551428D02*
X254007438Y-50646666D01*
X254007438Y-50646666D02*
X254055057Y-50694285D01*
X254055057Y-50694285D02*
X254150295Y-50741904D01*
X254150295Y-50741904D02*
X254245533Y-50741904D01*
X254245533Y-50741904D02*
X254340771Y-50694285D01*
X254340771Y-50694285D02*
X254388390Y-50646666D01*
X254388390Y-50646666D02*
X254436009Y-50551428D01*
X254436009Y-50551428D02*
X254436009Y-50218095D01*
X39184819Y-42396666D02*
X39899104Y-42396666D01*
X39899104Y-42396666D02*
X40041961Y-42349047D01*
X40041961Y-42349047D02*
X40137200Y-42253809D01*
X40137200Y-42253809D02*
X40184819Y-42110952D01*
X40184819Y-42110952D02*
X40184819Y-42015714D01*
X39280057Y-42825238D02*
X39232438Y-42872857D01*
X39232438Y-42872857D02*
X39184819Y-42968095D01*
X39184819Y-42968095D02*
X39184819Y-43206190D01*
X39184819Y-43206190D02*
X39232438Y-43301428D01*
X39232438Y-43301428D02*
X39280057Y-43349047D01*
X39280057Y-43349047D02*
X39375295Y-43396666D01*
X39375295Y-43396666D02*
X39470533Y-43396666D01*
X39470533Y-43396666D02*
X39613390Y-43349047D01*
X39613390Y-43349047D02*
X40184819Y-42777619D01*
X40184819Y-42777619D02*
X40184819Y-43396666D01*
X201811666Y-35084819D02*
X202144999Y-34608628D01*
X202383094Y-35084819D02*
X202383094Y-34084819D01*
X202383094Y-34084819D02*
X202002142Y-34084819D01*
X202002142Y-34084819D02*
X201906904Y-34132438D01*
X201906904Y-34132438D02*
X201859285Y-34180057D01*
X201859285Y-34180057D02*
X201811666Y-34275295D01*
X201811666Y-34275295D02*
X201811666Y-34418152D01*
X201811666Y-34418152D02*
X201859285Y-34513390D01*
X201859285Y-34513390D02*
X201906904Y-34561009D01*
X201906904Y-34561009D02*
X202002142Y-34608628D01*
X202002142Y-34608628D02*
X202383094Y-34608628D01*
X201478332Y-34084819D02*
X200811666Y-34084819D01*
X200811666Y-34084819D02*
X201240237Y-35084819D01*
X235211904Y-101294819D02*
X235211904Y-102104342D01*
X235211904Y-102104342D02*
X235164285Y-102199580D01*
X235164285Y-102199580D02*
X235116666Y-102247200D01*
X235116666Y-102247200D02*
X235021428Y-102294819D01*
X235021428Y-102294819D02*
X234830952Y-102294819D01*
X234830952Y-102294819D02*
X234735714Y-102247200D01*
X234735714Y-102247200D02*
X234688095Y-102199580D01*
X234688095Y-102199580D02*
X234640476Y-102104342D01*
X234640476Y-102104342D02*
X234640476Y-101294819D01*
X234211904Y-101390057D02*
X234164285Y-101342438D01*
X234164285Y-101342438D02*
X234069047Y-101294819D01*
X234069047Y-101294819D02*
X233830952Y-101294819D01*
X233830952Y-101294819D02*
X233735714Y-101342438D01*
X233735714Y-101342438D02*
X233688095Y-101390057D01*
X233688095Y-101390057D02*
X233640476Y-101485295D01*
X233640476Y-101485295D02*
X233640476Y-101580533D01*
X233640476Y-101580533D02*
X233688095Y-101723390D01*
X233688095Y-101723390D02*
X234259523Y-102294819D01*
X234259523Y-102294819D02*
X233640476Y-102294819D01*
X204216666Y-68609580D02*
X204264285Y-68657200D01*
X204264285Y-68657200D02*
X204407142Y-68704819D01*
X204407142Y-68704819D02*
X204502380Y-68704819D01*
X204502380Y-68704819D02*
X204645237Y-68657200D01*
X204645237Y-68657200D02*
X204740475Y-68561961D01*
X204740475Y-68561961D02*
X204788094Y-68466723D01*
X204788094Y-68466723D02*
X204835713Y-68276247D01*
X204835713Y-68276247D02*
X204835713Y-68133390D01*
X204835713Y-68133390D02*
X204788094Y-67942914D01*
X204788094Y-67942914D02*
X204740475Y-67847676D01*
X204740475Y-67847676D02*
X204645237Y-67752438D01*
X204645237Y-67752438D02*
X204502380Y-67704819D01*
X204502380Y-67704819D02*
X204407142Y-67704819D01*
X204407142Y-67704819D02*
X204264285Y-67752438D01*
X204264285Y-67752438D02*
X204216666Y-67800057D01*
X203264285Y-68704819D02*
X203835713Y-68704819D01*
X203549999Y-68704819D02*
X203549999Y-67704819D01*
X203549999Y-67704819D02*
X203645237Y-67847676D01*
X203645237Y-67847676D02*
X203740475Y-67942914D01*
X203740475Y-67942914D02*
X203835713Y-67990533D01*
X64404819Y-41816666D02*
X65119104Y-41816666D01*
X65119104Y-41816666D02*
X65261961Y-41769047D01*
X65261961Y-41769047D02*
X65357200Y-41673809D01*
X65357200Y-41673809D02*
X65404819Y-41530952D01*
X65404819Y-41530952D02*
X65404819Y-41435714D01*
X65404819Y-42816666D02*
X65404819Y-42245238D01*
X65404819Y-42530952D02*
X64404819Y-42530952D01*
X64404819Y-42530952D02*
X64547676Y-42435714D01*
X64547676Y-42435714D02*
X64642914Y-42340476D01*
X64642914Y-42340476D02*
X64690533Y-42245238D01*
X91104819Y-43983333D02*
X90628628Y-43650000D01*
X91104819Y-43411905D02*
X90104819Y-43411905D01*
X90104819Y-43411905D02*
X90104819Y-43792857D01*
X90104819Y-43792857D02*
X90152438Y-43888095D01*
X90152438Y-43888095D02*
X90200057Y-43935714D01*
X90200057Y-43935714D02*
X90295295Y-43983333D01*
X90295295Y-43983333D02*
X90438152Y-43983333D01*
X90438152Y-43983333D02*
X90533390Y-43935714D01*
X90533390Y-43935714D02*
X90581009Y-43888095D01*
X90581009Y-43888095D02*
X90628628Y-43792857D01*
X90628628Y-43792857D02*
X90628628Y-43411905D01*
X90438152Y-44840476D02*
X91104819Y-44840476D01*
X90057200Y-44602381D02*
X90771485Y-44364286D01*
X90771485Y-44364286D02*
X90771485Y-44983333D01*
X110334819Y-40921905D02*
X109334819Y-40921905D01*
X109334819Y-40921905D02*
X109334819Y-41160000D01*
X109334819Y-41160000D02*
X109382438Y-41302857D01*
X109382438Y-41302857D02*
X109477676Y-41398095D01*
X109477676Y-41398095D02*
X109572914Y-41445714D01*
X109572914Y-41445714D02*
X109763390Y-41493333D01*
X109763390Y-41493333D02*
X109906247Y-41493333D01*
X109906247Y-41493333D02*
X110096723Y-41445714D01*
X110096723Y-41445714D02*
X110191961Y-41398095D01*
X110191961Y-41398095D02*
X110287200Y-41302857D01*
X110287200Y-41302857D02*
X110334819Y-41160000D01*
X110334819Y-41160000D02*
X110334819Y-40921905D01*
X110334819Y-42445714D02*
X110334819Y-41874286D01*
X110334819Y-42160000D02*
X109334819Y-42160000D01*
X109334819Y-42160000D02*
X109477676Y-42064762D01*
X109477676Y-42064762D02*
X109572914Y-41969524D01*
X109572914Y-41969524D02*
X109620533Y-41874286D01*
X110779819Y-37343095D02*
X109779819Y-37343095D01*
X110779819Y-37914523D02*
X110208390Y-37485952D01*
X109779819Y-37914523D02*
X110351247Y-37343095D01*
X224346779Y-38984580D02*
X224394398Y-39032200D01*
X224394398Y-39032200D02*
X224537255Y-39079819D01*
X224537255Y-39079819D02*
X224632493Y-39079819D01*
X224632493Y-39079819D02*
X224775350Y-39032200D01*
X224775350Y-39032200D02*
X224870588Y-38936961D01*
X224870588Y-38936961D02*
X224918207Y-38841723D01*
X224918207Y-38841723D02*
X224965826Y-38651247D01*
X224965826Y-38651247D02*
X224965826Y-38508390D01*
X224965826Y-38508390D02*
X224918207Y-38317914D01*
X224918207Y-38317914D02*
X224870588Y-38222676D01*
X224870588Y-38222676D02*
X224775350Y-38127438D01*
X224775350Y-38127438D02*
X224632493Y-38079819D01*
X224632493Y-38079819D02*
X224537255Y-38079819D01*
X224537255Y-38079819D02*
X224394398Y-38127438D01*
X224394398Y-38127438D02*
X224346779Y-38175057D01*
X224013445Y-38079819D02*
X223394398Y-38079819D01*
X223394398Y-38079819D02*
X223727731Y-38460771D01*
X223727731Y-38460771D02*
X223584874Y-38460771D01*
X223584874Y-38460771D02*
X223489636Y-38508390D01*
X223489636Y-38508390D02*
X223442017Y-38556009D01*
X223442017Y-38556009D02*
X223394398Y-38651247D01*
X223394398Y-38651247D02*
X223394398Y-38889342D01*
X223394398Y-38889342D02*
X223442017Y-38984580D01*
X223442017Y-38984580D02*
X223489636Y-39032200D01*
X223489636Y-39032200D02*
X223584874Y-39079819D01*
X223584874Y-39079819D02*
X223870588Y-39079819D01*
X223870588Y-39079819D02*
X223965826Y-39032200D01*
X223965826Y-39032200D02*
X224013445Y-38984580D01*
X225891666Y-101059580D02*
X225939285Y-101107200D01*
X225939285Y-101107200D02*
X226082142Y-101154819D01*
X226082142Y-101154819D02*
X226177380Y-101154819D01*
X226177380Y-101154819D02*
X226320237Y-101107200D01*
X226320237Y-101107200D02*
X226415475Y-101011961D01*
X226415475Y-101011961D02*
X226463094Y-100916723D01*
X226463094Y-100916723D02*
X226510713Y-100726247D01*
X226510713Y-100726247D02*
X226510713Y-100583390D01*
X226510713Y-100583390D02*
X226463094Y-100392914D01*
X226463094Y-100392914D02*
X226415475Y-100297676D01*
X226415475Y-100297676D02*
X226320237Y-100202438D01*
X226320237Y-100202438D02*
X226177380Y-100154819D01*
X226177380Y-100154819D02*
X226082142Y-100154819D01*
X226082142Y-100154819D02*
X225939285Y-100202438D01*
X225939285Y-100202438D02*
X225891666Y-100250057D01*
X225510713Y-100250057D02*
X225463094Y-100202438D01*
X225463094Y-100202438D02*
X225367856Y-100154819D01*
X225367856Y-100154819D02*
X225129761Y-100154819D01*
X225129761Y-100154819D02*
X225034523Y-100202438D01*
X225034523Y-100202438D02*
X224986904Y-100250057D01*
X224986904Y-100250057D02*
X224939285Y-100345295D01*
X224939285Y-100345295D02*
X224939285Y-100440533D01*
X224939285Y-100440533D02*
X224986904Y-100583390D01*
X224986904Y-100583390D02*
X225558332Y-101154819D01*
X225558332Y-101154819D02*
X224939285Y-101154819D01*
X177761904Y-54104819D02*
X177761904Y-54914342D01*
X177761904Y-54914342D02*
X177714285Y-55009580D01*
X177714285Y-55009580D02*
X177666666Y-55057200D01*
X177666666Y-55057200D02*
X177571428Y-55104819D01*
X177571428Y-55104819D02*
X177380952Y-55104819D01*
X177380952Y-55104819D02*
X177285714Y-55057200D01*
X177285714Y-55057200D02*
X177238095Y-55009580D01*
X177238095Y-55009580D02*
X177190476Y-54914342D01*
X177190476Y-54914342D02*
X177190476Y-54104819D01*
X176190476Y-55104819D02*
X176761904Y-55104819D01*
X176476190Y-55104819D02*
X176476190Y-54104819D01*
X176476190Y-54104819D02*
X176571428Y-54247676D01*
X176571428Y-54247676D02*
X176666666Y-54342914D01*
X176666666Y-54342914D02*
X176761904Y-54390533D01*
X115134819Y-43973333D02*
X114658628Y-43640000D01*
X115134819Y-43401905D02*
X114134819Y-43401905D01*
X114134819Y-43401905D02*
X114134819Y-43782857D01*
X114134819Y-43782857D02*
X114182438Y-43878095D01*
X114182438Y-43878095D02*
X114230057Y-43925714D01*
X114230057Y-43925714D02*
X114325295Y-43973333D01*
X114325295Y-43973333D02*
X114468152Y-43973333D01*
X114468152Y-43973333D02*
X114563390Y-43925714D01*
X114563390Y-43925714D02*
X114611009Y-43878095D01*
X114611009Y-43878095D02*
X114658628Y-43782857D01*
X114658628Y-43782857D02*
X114658628Y-43401905D01*
X115134819Y-44925714D02*
X115134819Y-44354286D01*
X115134819Y-44640000D02*
X114134819Y-44640000D01*
X114134819Y-44640000D02*
X114277676Y-44544762D01*
X114277676Y-44544762D02*
X114372914Y-44449524D01*
X114372914Y-44449524D02*
X114420533Y-44354286D01*
%TO.C,U3*%
D12*
X100665000Y-36895000D02*
X102315000Y-36895000D01*
X100665000Y-47175000D02*
X100665000Y-36895000D01*
X104315000Y-36895000D02*
X105965000Y-36895000D01*
X105965000Y-36895000D02*
X105965000Y-47175000D01*
X105965000Y-47175000D02*
X100665000Y-47175000D01*
X104315000Y-36895000D02*
G75*
G02*
X102315000Y-36895000I-1000000J0D01*
G01*
%TO.C,R3*%
X122110000Y-37240000D02*
X122110000Y-40550000D01*
X122110000Y-50400000D02*
X122110000Y-47090000D01*
X120740000Y-40550000D02*
X123480000Y-40550000D01*
X123480000Y-47090000D01*
X120740000Y-47090000D01*
X120740000Y-40550000D01*
%TO.C,R2*%
X69445000Y-52350000D02*
X72755000Y-52350000D01*
X82605000Y-52350000D02*
X79295000Y-52350000D01*
X72755000Y-50980000D02*
X79295000Y-50980000D01*
X79295000Y-53720000D01*
X72755000Y-53720000D01*
X72755000Y-50980000D01*
%TO.C,A1*%
X215005000Y-40460000D02*
X217675000Y-40460000D01*
X215005000Y-58500000D02*
X215005000Y-40460000D01*
X217675000Y-43130000D02*
X217675000Y-40460000D01*
X217675000Y-55830000D02*
X217675000Y-58500000D01*
X217675000Y-55830000D02*
X255775000Y-55830000D01*
X220215000Y-40460000D02*
X258445000Y-40460000D01*
X220215000Y-43130000D02*
X217675000Y-43130000D01*
X220215000Y-43130000D02*
X220215000Y-40460000D01*
X220215000Y-43130000D02*
X255775000Y-43130000D01*
X250565000Y-45540000D02*
X250565000Y-53420000D01*
X250565000Y-53420000D02*
X260985000Y-53420000D01*
X255775000Y-43130000D02*
X255775000Y-40460000D01*
X255775000Y-55830000D02*
X255775000Y-58500000D01*
X258445000Y-40460000D02*
X258445000Y-45540000D01*
X258445000Y-58500000D02*
X215005000Y-58500000D01*
X258445000Y-58500000D02*
X258445000Y-53420000D01*
X260985000Y-45540000D02*
X250565000Y-45540000D01*
X260985000Y-53420000D02*
X260985000Y-45540000D01*
%TO.C,J2*%
D13*
X40944700Y-33897251D02*
X61188500Y-33897251D01*
X40944700Y-49950050D02*
X40944700Y-33897251D01*
X45250287Y-49950050D02*
X40944700Y-49950050D01*
X55250287Y-49950050D02*
X46882912Y-49950050D01*
X61188500Y-33897251D02*
X61188500Y-49950050D01*
X61188500Y-49950050D02*
X56882913Y-49950050D01*
D14*
X62204500Y-46524050D02*
G75*
G02*
X61442500Y-46524050I-381000J0D01*
G01*
X61442500Y-46524050D02*
G75*
G02*
X62204500Y-46524050I381000J0D01*
G01*
%TO.C,R7*%
D12*
X195065000Y-37000000D02*
X198375000Y-37000000D01*
X208225000Y-37000000D02*
X204915000Y-37000000D01*
X198375000Y-35630000D02*
X204915000Y-35630000D01*
X204915000Y-38370000D01*
X198375000Y-38370000D01*
X198375000Y-35630000D01*
%TO.C,U2*%
X230615000Y-102860000D02*
X230615000Y-103125000D01*
X230615000Y-118215000D02*
X230615000Y-118480000D01*
X230615000Y-118480000D02*
X238335000Y-118480000D01*
X238335000Y-102860000D02*
X230615000Y-102860000D01*
X238335000Y-103125000D02*
X238335000Y-102860000D01*
X238335000Y-118480000D02*
X238335000Y-118215000D01*
X229825000Y-118220000D02*
X229485000Y-118690000D01*
X230165000Y-118690000D01*
X229825000Y-118220000D01*
G36*
X230165000Y-118690000D02*
G01*
X229485000Y-118690000D01*
X229825000Y-118220000D01*
X230165000Y-118690000D01*
G37*
%TO.C,C1*%
X206604775Y-70275000D02*
X206604775Y-70775000D01*
X206854775Y-70525000D02*
X206354775Y-70525000D01*
X206670000Y-72000000D02*
G75*
G02*
X201430000Y-72000000I-2620000J0D01*
G01*
X201430000Y-72000000D02*
G75*
G02*
X206670000Y-72000000I2620000J0D01*
G01*
%TO.C,J1*%
D13*
X66194700Y-33922251D02*
X86438500Y-33922251D01*
X66194700Y-49975050D02*
X66194700Y-33922251D01*
X70500287Y-49975050D02*
X66194700Y-49975050D01*
X80500287Y-49975050D02*
X72132912Y-49975050D01*
X86438500Y-33922251D02*
X86438500Y-49975050D01*
X86438500Y-49975050D02*
X82132913Y-49975050D01*
D14*
X87454500Y-46549050D02*
G75*
G02*
X86692500Y-46549050I-381000J0D01*
G01*
X86692500Y-46549050D02*
G75*
G02*
X87454500Y-46549050I381000J0D01*
G01*
%TO.C,R4*%
D12*
X93125000Y-37645000D02*
X93125000Y-40955000D01*
X93125000Y-50805000D02*
X93125000Y-47495000D01*
X91755000Y-40955000D02*
X94495000Y-40955000D01*
X94495000Y-47495000D01*
X91755000Y-47495000D01*
X91755000Y-40955000D01*
%TO.C,D1*%
X111005000Y-39895000D02*
X113245000Y-39895000D01*
X111005000Y-40015000D02*
X113245000Y-40015000D01*
X111005000Y-40135000D02*
X113245000Y-40135000D01*
X112125000Y-38645000D02*
X112125000Y-39295000D01*
X112125000Y-44185000D02*
X112125000Y-43535000D01*
X111005000Y-39295000D02*
X113245000Y-39295000D01*
X113245000Y-43535000D01*
X111005000Y-43535000D01*
X111005000Y-39295000D01*
%TO.C,C3*%
X225080113Y-36392000D02*
X225080113Y-36958000D01*
X225120113Y-36158000D02*
X225120113Y-37192000D01*
X225160113Y-35998000D02*
X225160113Y-37352000D01*
X225200113Y-35870000D02*
X225200113Y-37480000D01*
X225240113Y-35761000D02*
X225240113Y-37589000D01*
X225280113Y-35664000D02*
X225280113Y-37686000D01*
X225320113Y-35577000D02*
X225320113Y-37773000D01*
X225360113Y-35498000D02*
X225360113Y-37852000D01*
X225400113Y-35424000D02*
X225400113Y-37926000D01*
X225440113Y-35356000D02*
X225440113Y-37994000D01*
X225480113Y-35292000D02*
X225480113Y-38058000D01*
X225520113Y-35232000D02*
X225520113Y-38118000D01*
X225560113Y-35176000D02*
X225560113Y-38174000D01*
X225600113Y-35122000D02*
X225600113Y-38228000D01*
X225640113Y-35071000D02*
X225640113Y-38279000D01*
X225680113Y-35023000D02*
X225680113Y-35635000D01*
X225680113Y-37715000D02*
X225680113Y-38327000D01*
X225720113Y-34976000D02*
X225720113Y-35635000D01*
X225720113Y-37715000D02*
X225720113Y-38374000D01*
X225760113Y-34932000D02*
X225760113Y-35635000D01*
X225760113Y-37715000D02*
X225760113Y-38418000D01*
X225800113Y-34890000D02*
X225800113Y-35635000D01*
X225800113Y-37715000D02*
X225800113Y-38460000D01*
X225840113Y-34850000D02*
X225840113Y-35635000D01*
X225840113Y-37715000D02*
X225840113Y-38500000D01*
X225880113Y-34811000D02*
X225880113Y-35635000D01*
X225880113Y-37715000D02*
X225880113Y-38539000D01*
X225920113Y-34774000D02*
X225920113Y-35635000D01*
X225920113Y-37715000D02*
X225920113Y-38576000D01*
X225960113Y-34739000D02*
X225960113Y-35635000D01*
X225960113Y-37715000D02*
X225960113Y-38611000D01*
X226000113Y-34705000D02*
X226000113Y-35635000D01*
X226000113Y-37715000D02*
X226000113Y-38645000D01*
X226040113Y-34672000D02*
X226040113Y-35635000D01*
X226040113Y-37715000D02*
X226040113Y-38678000D01*
X226080113Y-34640000D02*
X226080113Y-35635000D01*
X226080113Y-37715000D02*
X226080113Y-38710000D01*
X226120113Y-34610000D02*
X226120113Y-35635000D01*
X226120113Y-37715000D02*
X226120113Y-38740000D01*
X226160113Y-34581000D02*
X226160113Y-35635000D01*
X226160113Y-37715000D02*
X226160113Y-38769000D01*
X226200113Y-34553000D02*
X226200113Y-35635000D01*
X226200113Y-37715000D02*
X226200113Y-38797000D01*
X226240113Y-34526000D02*
X226240113Y-35635000D01*
X226240113Y-37715000D02*
X226240113Y-38824000D01*
X226280113Y-34500000D02*
X226280113Y-35635000D01*
X226280113Y-37715000D02*
X226280113Y-38850000D01*
X226320113Y-34476000D02*
X226320113Y-35635000D01*
X226320113Y-37715000D02*
X226320113Y-38874000D01*
X226360113Y-34452000D02*
X226360113Y-35635000D01*
X226360113Y-37715000D02*
X226360113Y-38898000D01*
X226400113Y-34429000D02*
X226400113Y-35635000D01*
X226400113Y-37715000D02*
X226400113Y-38921000D01*
X226440113Y-34407000D02*
X226440113Y-35635000D01*
X226440113Y-37715000D02*
X226440113Y-38943000D01*
X226480113Y-34386000D02*
X226480113Y-35635000D01*
X226480113Y-37715000D02*
X226480113Y-38964000D01*
X226520113Y-34366000D02*
X226520113Y-35635000D01*
X226520113Y-37715000D02*
X226520113Y-38984000D01*
X226560113Y-34346000D02*
X226560113Y-35635000D01*
X226560113Y-37715000D02*
X226560113Y-39004000D01*
X226600113Y-34328000D02*
X226600113Y-35635000D01*
X226600113Y-37715000D02*
X226600113Y-39022000D01*
X226640113Y-34310000D02*
X226640113Y-35635000D01*
X226640113Y-37715000D02*
X226640113Y-39040000D01*
X226680113Y-34293000D02*
X226680113Y-35635000D01*
X226680113Y-37715000D02*
X226680113Y-39057000D01*
X226720113Y-34277000D02*
X226720113Y-35635000D01*
X226720113Y-37715000D02*
X226720113Y-39073000D01*
X226760113Y-34262000D02*
X226760113Y-35635000D01*
X226760113Y-37715000D02*
X226760113Y-39088000D01*
X226800113Y-34247000D02*
X226800113Y-35635000D01*
X226800113Y-37715000D02*
X226800113Y-39103000D01*
X226840113Y-34233000D02*
X226840113Y-35635000D01*
X226840113Y-37715000D02*
X226840113Y-39117000D01*
X226880113Y-34220000D02*
X226880113Y-35635000D01*
X226880113Y-37715000D02*
X226880113Y-39130000D01*
X226920113Y-34208000D02*
X226920113Y-35635000D01*
X226920113Y-37715000D02*
X226920113Y-39142000D01*
X226960113Y-34196000D02*
X226960113Y-35635000D01*
X226960113Y-37715000D02*
X226960113Y-39154000D01*
X227000113Y-34185000D02*
X227000113Y-35635000D01*
X227000113Y-37715000D02*
X227000113Y-39165000D01*
X227040113Y-34174000D02*
X227040113Y-35635000D01*
X227040113Y-37715000D02*
X227040113Y-39176000D01*
X227080113Y-34165000D02*
X227080113Y-35635000D01*
X227080113Y-37715000D02*
X227080113Y-39185000D01*
X227120113Y-34156000D02*
X227120113Y-35635000D01*
X227120113Y-37715000D02*
X227120113Y-39194000D01*
X227160113Y-34147000D02*
X227160113Y-35635000D01*
X227160113Y-37715000D02*
X227160113Y-39203000D01*
X227200113Y-34139000D02*
X227200113Y-35635000D01*
X227200113Y-37715000D02*
X227200113Y-39211000D01*
X227240113Y-34132000D02*
X227240113Y-35635000D01*
X227240113Y-37715000D02*
X227240113Y-39218000D01*
X227280113Y-34126000D02*
X227280113Y-35635000D01*
X227280113Y-37715000D02*
X227280113Y-39224000D01*
X227320113Y-34120000D02*
X227320113Y-35635000D01*
X227320113Y-37715000D02*
X227320113Y-39230000D01*
X227360113Y-34115000D02*
X227360113Y-35635000D01*
X227360113Y-37715000D02*
X227360113Y-39235000D01*
X227400113Y-34110000D02*
X227400113Y-35635000D01*
X227400113Y-37715000D02*
X227400113Y-39240000D01*
X227440113Y-34106000D02*
X227440113Y-35635000D01*
X227440113Y-37715000D02*
X227440113Y-39244000D01*
X227480113Y-34103000D02*
X227480113Y-35635000D01*
X227480113Y-37715000D02*
X227480113Y-39247000D01*
X227520113Y-34100000D02*
X227520113Y-35635000D01*
X227520113Y-37715000D02*
X227520113Y-39250000D01*
X227560113Y-34098000D02*
X227560113Y-35635000D01*
X227560113Y-37715000D02*
X227560113Y-39252000D01*
X227600113Y-34096000D02*
X227600113Y-35635000D01*
X227600113Y-37715000D02*
X227600113Y-39254000D01*
X227640113Y-34095000D02*
X227640113Y-35635000D01*
X227640113Y-37715000D02*
X227640113Y-39255000D01*
X227680113Y-34095000D02*
X227680113Y-35635000D01*
X227680113Y-37715000D02*
X227680113Y-39255000D01*
X230234888Y-34950000D02*
X230234888Y-35450000D01*
X230484888Y-35200000D02*
X229984888Y-35200000D01*
X230300113Y-36675000D02*
G75*
G02*
X225060113Y-36675000I-2620000J0D01*
G01*
X225060113Y-36675000D02*
G75*
G02*
X230300113Y-36675000I2620000J0D01*
G01*
%TO.C,C2*%
X225929775Y-102500000D02*
X225929775Y-103000000D01*
X226179775Y-102750000D02*
X225679775Y-102750000D01*
X225995000Y-104225000D02*
G75*
G02*
X220755000Y-104225000I-2620000J0D01*
G01*
X220755000Y-104225000D02*
G75*
G02*
X225995000Y-104225000I2620000J0D01*
G01*
%TO.C,U1*%
X173265000Y-55915000D02*
X173265000Y-56180000D01*
X173265000Y-71270000D02*
X173265000Y-71535000D01*
X173265000Y-71535000D02*
X180985000Y-71535000D01*
X180985000Y-55915000D02*
X173265000Y-55915000D01*
X180985000Y-56180000D02*
X180985000Y-55915000D01*
X180985000Y-71535000D02*
X180985000Y-71270000D01*
X172475000Y-71275000D02*
X172135000Y-71745000D01*
X172815000Y-71745000D01*
X172475000Y-71275000D01*
G36*
X172815000Y-71745000D02*
G01*
X172135000Y-71745000D01*
X172475000Y-71275000D01*
X172815000Y-71745000D01*
G37*
%TO.C,R1*%
X117125000Y-37645000D02*
X117125000Y-40955000D01*
X117125000Y-50805000D02*
X117125000Y-47495000D01*
X115755000Y-40955000D02*
X118495000Y-40955000D01*
X118495000Y-47495000D01*
X115755000Y-47495000D01*
X115755000Y-40955000D01*
%TD*%
M02*
