%TF.GenerationSoftware,KiCad,Pcbnew,10.0.3*%
%TF.CreationDate,2026-06-30T05:56:45-04:00*%
%TF.ProjectId,SQ80_Hardware_Programmer,53513830-5f48-4617-9264-776172655f50,rev?*%
%TF.SameCoordinates,Original*%
%TF.FileFunction,Copper,L1,Top*%
%TF.FilePolarity,Positive*%
%FSLAX46Y46*%
G04 Gerber Fmt 4.6, Leading zero omitted, Abs format (unit mm)*
G04 Created by KiCad (PCBNEW 10.0.3) date 2026-06-30 05:56:45*
%MOMM*%
%LPD*%
G01*
G04 APERTURE LIST*
G04 Aperture macros list*
%AMRoundRect*
0 Rectangle with rounded corners*
0 $1 Rounding radius*
0 $2 $3 $4 $5 $6 $7 $8 $9 X,Y pos of 4 corners*
0 Add a 4 corners polygon primitive as box body*
4,1,4,$2,$3,$4,$5,$6,$7,$8,$9,$2,$3,0*
0 Add four circle primitives for the rounded corners*
1,1,$1+$1,$2,$3*
1,1,$1+$1,$4,$5*
1,1,$1+$1,$6,$7*
1,1,$1+$1,$8,$9*
0 Add four rect primitives between the rounded corners*
20,1,$1+$1,$2,$3,$4,$5,0*
20,1,$1+$1,$4,$5,$6,$7,0*
20,1,$1+$1,$6,$7,$8,$9,0*
20,1,$1+$1,$8,$9,$2,$3,0*%
G04 Aperture macros list end*
%TA.AperFunction,ComponentPad*%
%ADD10C,1.800000*%
%TD*%
%TA.AperFunction,ComponentPad*%
%ADD11C,4.400000*%
%TD*%
%TA.AperFunction,ComponentPad*%
%ADD12C,2.000000*%
%TD*%
%TA.AperFunction,ComponentPad*%
%ADD13R,1.700000X1.700000*%
%TD*%
%TA.AperFunction,ComponentPad*%
%ADD14C,1.700000*%
%TD*%
%TA.AperFunction,ComponentPad*%
%ADD15RoundRect,0.170000X0.680000X-0.680000X0.680000X0.680000X-0.680000X0.680000X-0.680000X-0.680000X0*%
%TD*%
%TA.AperFunction,ComponentPad*%
%ADD16RoundRect,0.250000X0.550000X0.550000X-0.550000X0.550000X-0.550000X-0.550000X0.550000X-0.550000X0*%
%TD*%
%TA.AperFunction,ComponentPad*%
%ADD17C,1.600000*%
%TD*%
%TA.AperFunction,ComponentPad*%
%ADD18R,1.600000X1.600000*%
%TD*%
%TA.AperFunction,ComponentPad*%
%ADD19O,1.600000X1.600000*%
%TD*%
%TA.AperFunction,ComponentPad*%
%ADD20C,1.803400*%
%TD*%
%TA.AperFunction,ComponentPad*%
%ADD21RoundRect,0.250000X-0.550000X0.550000X-0.550000X-0.550000X0.550000X-0.550000X0.550000X0.550000X0*%
%TD*%
%TA.AperFunction,Conductor*%
%ADD22C,0.200000*%
%TD*%
%TA.AperFunction,Conductor*%
%ADD23C,0.500000*%
%TD*%
%TA.AperFunction,Conductor*%
%ADD24C,1.000000*%
%TD*%
%TA.AperFunction,Conductor*%
%ADD25C,0.250000*%
%TD*%
G04 APERTURE END LIST*
D10*
%TO.P,RV13,1,1_1*%
%TO.N,GND*%
X156860714Y-95058333D03*
%TO.P,RV13,2,2_2*%
%TO.N,/POT_13*%
X156860714Y-92558333D03*
%TO.P,RV13,3,3_3*%
%TO.N,+5V*%
X156860714Y-90058333D03*
D11*
%TO.P,RV13,MP*%
%TO.N,N/C*%
X163860714Y-88158333D03*
X163860714Y-96958333D03*
%TD*%
D10*
%TO.P,RV28,1,1_1*%
%TO.N,GND*%
X128289286Y-141725000D03*
%TO.P,RV28,2,2_2*%
%TO.N,/POT_28*%
X128289286Y-139225000D03*
%TO.P,RV28,3,3_3*%
%TO.N,+5V*%
X128289286Y-136725000D03*
D11*
%TO.P,RV28,MP*%
%TO.N,N/C*%
X135289286Y-134825000D03*
X135289286Y-143625000D03*
%TD*%
D10*
%TO.P,RV25,1,1_1*%
%TO.N,GND*%
X42575000Y-141725000D03*
%TO.P,RV25,2,2_2*%
%TO.N,/POT_25*%
X42575000Y-139225000D03*
%TO.P,RV25,3,3_3*%
%TO.N,+5V*%
X42575000Y-136725000D03*
D11*
%TO.P,RV25,MP*%
%TO.N,N/C*%
X49575000Y-134825000D03*
X49575000Y-143625000D03*
%TD*%
D10*
%TO.P,RV23,1,1_1*%
%TO.N,GND*%
X213985714Y-118391667D03*
%TO.P,RV23,2,2_2*%
%TO.N,/POT_23*%
X213985714Y-115891667D03*
%TO.P,RV23,3,3_3*%
%TO.N,+5V*%
X213985714Y-113391667D03*
D11*
%TO.P,RV23,MP*%
%TO.N,N/C*%
X220985714Y-111491667D03*
X220985714Y-120291667D03*
%TD*%
D10*
%TO.P,RV3,1,1_1*%
%TO.N,GND*%
X99610714Y-71725000D03*
%TO.P,RV3,2,2_2*%
%TO.N,/POT_3*%
X99610714Y-69225000D03*
%TO.P,RV3,3,3_3*%
%TO.N,+5V*%
X99610714Y-66725000D03*
D11*
%TO.P,RV3,MP*%
%TO.N,N/C*%
X106610714Y-64825000D03*
X106610714Y-73625000D03*
%TD*%
D10*
%TO.P,RV30,1,1_1*%
%TO.N,GND*%
X185432143Y-141725000D03*
%TO.P,RV30,2,2_2*%
%TO.N,/POT_30*%
X185432143Y-139225000D03*
%TO.P,RV30,3,3_3*%
%TO.N,+5V*%
X185432143Y-136725000D03*
D11*
%TO.P,RV30,MP*%
%TO.N,N/C*%
X192432143Y-134825000D03*
X192432143Y-143625000D03*
%TD*%
D10*
%TO.P,RV11,1,1_1*%
%TO.N,GND*%
X99717857Y-95058333D03*
%TO.P,RV11,2,2_2*%
%TO.N,/POT_11*%
X99717857Y-92558333D03*
%TO.P,RV11,3,3_3*%
%TO.N,+5V*%
X99717857Y-90058333D03*
D11*
%TO.P,RV11,MP*%
%TO.N,N/C*%
X106717857Y-88158333D03*
X106717857Y-96958333D03*
%TD*%
D10*
%TO.P,RV5,1,1_1*%
%TO.N,GND*%
X156896429Y-71725000D03*
%TO.P,RV5,2,2_2*%
%TO.N,/POT_5*%
X156896429Y-69225000D03*
%TO.P,RV5,3,3_3*%
%TO.N,+5V*%
X156896429Y-66725000D03*
D11*
%TO.P,RV5,MP*%
%TO.N,N/C*%
X163896429Y-64825000D03*
X163896429Y-73625000D03*
%TD*%
D10*
%TO.P,RV22,1,1_1*%
%TO.N,GND*%
X185421429Y-118391667D03*
%TO.P,RV22,2,2_2*%
%TO.N,/POT_22*%
X185421429Y-115891667D03*
%TO.P,RV22,3,3_3*%
%TO.N,+5V*%
X185421429Y-113391667D03*
D11*
%TO.P,RV22,MP*%
%TO.N,N/C*%
X192421429Y-111491667D03*
X192421429Y-120291667D03*
%TD*%
D10*
%TO.P,RV24,1,1_1*%
%TO.N,GND*%
X242550000Y-118391667D03*
%TO.P,RV24,2,2_2*%
%TO.N,/POT_24*%
X242550000Y-115891667D03*
%TO.P,RV24,3,3_3*%
%TO.N,+5V*%
X242550000Y-113391667D03*
D11*
%TO.P,RV24,MP*%
%TO.N,N/C*%
X249550000Y-111491667D03*
X249550000Y-120291667D03*
%TD*%
D10*
%TO.P,RV6,1,1_1*%
%TO.N,GND*%
X185539286Y-71725000D03*
%TO.P,RV6,2,2_2*%
%TO.N,/POT_6*%
X185539286Y-69225000D03*
%TO.P,RV6,3,3_3*%
%TO.N,+5V*%
X185539286Y-66725000D03*
D11*
%TO.P,RV6,MP*%
%TO.N,N/C*%
X192539286Y-64825000D03*
X192539286Y-73625000D03*
%TD*%
D10*
%TO.P,RV17,1,1_1*%
%TO.N,GND*%
X42600000Y-118391667D03*
%TO.P,RV17,2,2_2*%
%TO.N,/POT_17*%
X42600000Y-115891667D03*
%TO.P,RV17,3,3_3*%
%TO.N,+5V*%
X42600000Y-113391667D03*
D11*
%TO.P,RV17,MP*%
%TO.N,N/C*%
X49600000Y-111491667D03*
X49600000Y-120291667D03*
%TD*%
D10*
%TO.P,RV16,1,1_1*%
%TO.N,GND*%
X242575000Y-95058333D03*
%TO.P,RV16,2,2_2*%
%TO.N,/POT_16*%
X242575000Y-92558333D03*
%TO.P,RV16,3,3_3*%
%TO.N,+5V*%
X242575000Y-90058333D03*
D11*
%TO.P,RV16,MP*%
%TO.N,N/C*%
X249575000Y-88158333D03*
X249575000Y-96958333D03*
%TD*%
D10*
%TO.P,RV15,1,1_1*%
%TO.N,GND*%
X214003571Y-95058333D03*
%TO.P,RV15,2,2_2*%
%TO.N,/POT_15*%
X214003571Y-92558333D03*
%TO.P,RV15,3,3_3*%
%TO.N,+5V*%
X214003571Y-90058333D03*
D11*
%TO.P,RV15,MP*%
%TO.N,N/C*%
X221003571Y-88158333D03*
X221003571Y-96958333D03*
%TD*%
D12*
%TO.P,SW2,1,1_1*%
%TO.N,+5V*%
X180125000Y-41725000D03*
X186625000Y-41725000D03*
%TO.P,SW2,2,2_2*%
%TO.N,/GLITCH_TRG*%
X180125000Y-46225000D03*
X186625000Y-46225000D03*
%TD*%
D13*
%TO.P,SW1,1,A_1*%
%TO.N,GND*%
X201125000Y-41435000D03*
D14*
%TO.P,SW1,2,B_2*%
%TO.N,/ARCH_MODE*%
X201125000Y-43975000D03*
%TO.P,SW1,3*%
%TO.N,N/C*%
X201125000Y-46515000D03*
%TD*%
D10*
%TO.P,RV32,1,1_1*%
%TO.N,GND*%
X242575000Y-141725000D03*
%TO.P,RV32,2,2_2*%
%TO.N,/POT_32*%
X242575000Y-139225000D03*
%TO.P,RV32,3,3_3*%
%TO.N,+5V*%
X242575000Y-136725000D03*
D11*
%TO.P,RV32,MP*%
%TO.N,N/C*%
X249575000Y-134825000D03*
X249575000Y-143625000D03*
%TD*%
D10*
%TO.P,RV10,1,1_1*%
%TO.N,GND*%
X71146429Y-95058333D03*
%TO.P,RV10,2,2_2*%
%TO.N,/POT_10*%
X71146429Y-92558333D03*
%TO.P,RV10,3,3_3*%
%TO.N,+5V*%
X71146429Y-90058333D03*
D11*
%TO.P,RV10,MP*%
%TO.N,N/C*%
X78146429Y-88158333D03*
X78146429Y-96958333D03*
%TD*%
D15*
%TO.P,U4,1,GND_1*%
%TO.N,GND*%
X131125000Y-47535000D03*
D14*
%TO.P,U4,2,VCC_2*%
%TO.N,+5V*%
X131125000Y-44995000D03*
%TO.P,U4,3,SCL_3*%
%TO.N,/SCL*%
X131125000Y-42455000D03*
%TO.P,U4,4,SDA_4*%
%TO.N,/SDA*%
X131125000Y-39915000D03*
%TD*%
D10*
%TO.P,RV19,1,1_1*%
%TO.N,GND*%
X99728571Y-118391667D03*
%TO.P,RV19,2,2_2*%
%TO.N,/POT_19*%
X99728571Y-115891667D03*
%TO.P,RV19,3,3_3*%
%TO.N,+5V*%
X99728571Y-113391667D03*
D11*
%TO.P,RV19,MP*%
%TO.N,N/C*%
X106728571Y-111491667D03*
X106728571Y-120291667D03*
%TD*%
D10*
%TO.P,RV26,1,1_1*%
%TO.N,GND*%
X71146429Y-141725000D03*
%TO.P,RV26,2,2_2*%
%TO.N,/POT_26*%
X71146429Y-139225000D03*
%TO.P,RV26,3,3_3*%
%TO.N,+5V*%
X71146429Y-136725000D03*
D11*
%TO.P,RV26,MP*%
%TO.N,N/C*%
X78146429Y-134825000D03*
X78146429Y-143625000D03*
%TD*%
D10*
%TO.P,RV14,1,1_1*%
%TO.N,GND*%
X185432143Y-95058333D03*
%TO.P,RV14,2,2_2*%
%TO.N,/POT_14*%
X185432143Y-92558333D03*
%TO.P,RV14,3,3_3*%
%TO.N,+5V*%
X185432143Y-90058333D03*
D11*
%TO.P,RV14,MP*%
%TO.N,N/C*%
X192432143Y-88158333D03*
X192432143Y-96958333D03*
%TD*%
D10*
%TO.P,RV4,1,1_1*%
%TO.N,GND*%
X128253571Y-71725000D03*
%TO.P,RV4,2,2_2*%
%TO.N,/POT_4*%
X128253571Y-69225000D03*
%TO.P,RV4,3,3_3*%
%TO.N,+5V*%
X128253571Y-66725000D03*
D11*
%TO.P,RV4,MP*%
%TO.N,N/C*%
X135253571Y-64825000D03*
X135253571Y-73625000D03*
%TD*%
D10*
%TO.P,RV9,1,1_1*%
%TO.N,GND*%
X42575000Y-95058333D03*
%TO.P,RV9,2,2_2*%
%TO.N,/POT_9*%
X42575000Y-92558333D03*
%TO.P,RV9,3,3_3*%
%TO.N,+5V*%
X42575000Y-90058333D03*
D11*
%TO.P,RV9,MP*%
%TO.N,N/C*%
X49575000Y-88158333D03*
X49575000Y-96958333D03*
%TD*%
D10*
%TO.P,RV8,1,1_1*%
%TO.N,GND*%
X242825000Y-71725000D03*
%TO.P,RV8,2,2_2*%
%TO.N,/POT_8*%
X242825000Y-69225000D03*
%TO.P,RV8,3,3_3*%
%TO.N,+5V*%
X242825000Y-66725000D03*
D11*
%TO.P,RV8,MP*%
%TO.N,N/C*%
X249825000Y-64825000D03*
X249825000Y-73625000D03*
%TD*%
D10*
%TO.P,RV1,1,1_1*%
%TO.N,GND*%
X42325000Y-71725000D03*
%TO.P,RV1,2,2_2*%
%TO.N,/POT_1*%
X42325000Y-69225000D03*
%TO.P,RV1,3,3_3*%
%TO.N,+5V*%
X42325000Y-66725000D03*
D11*
%TO.P,RV1,MP*%
%TO.N,N/C*%
X49325000Y-64825000D03*
X49325000Y-73625000D03*
%TD*%
D10*
%TO.P,RV12,1,1_1*%
%TO.N,GND*%
X128289286Y-95058333D03*
%TO.P,RV12,2,2_2*%
%TO.N,/POT_12*%
X128289286Y-92558333D03*
%TO.P,RV12,3,3_3*%
%TO.N,+5V*%
X128289286Y-90058333D03*
D11*
%TO.P,RV12,MP*%
%TO.N,N/C*%
X135289286Y-88158333D03*
X135289286Y-96958333D03*
%TD*%
D10*
%TO.P,RV27,1,1_1*%
%TO.N,GND*%
X99717857Y-141725000D03*
%TO.P,RV27,2,2_2*%
%TO.N,/POT_27*%
X99717857Y-139225000D03*
%TO.P,RV27,3,3_3*%
%TO.N,+5V*%
X99717857Y-136725000D03*
D11*
%TO.P,RV27,MP*%
%TO.N,N/C*%
X106717857Y-134825000D03*
X106717857Y-143625000D03*
%TD*%
D10*
%TO.P,RV29,1,1_1*%
%TO.N,GND*%
X156860714Y-141725000D03*
%TO.P,RV29,2,2_2*%
%TO.N,/POT_29*%
X156860714Y-139225000D03*
%TO.P,RV29,3,3_3*%
%TO.N,+5V*%
X156860714Y-136725000D03*
D11*
%TO.P,RV29,MP*%
%TO.N,N/C*%
X163860714Y-134825000D03*
X163860714Y-143625000D03*
%TD*%
D10*
%TO.P,RV7,1,1_1*%
%TO.N,GND*%
X214182143Y-71725000D03*
%TO.P,RV7,2,2_2*%
%TO.N,/POT_7*%
X214182143Y-69225000D03*
%TO.P,RV7,3,3_3*%
%TO.N,+5V*%
X214182143Y-66725000D03*
D11*
%TO.P,RV7,MP*%
%TO.N,N/C*%
X221182143Y-64825000D03*
X221182143Y-73625000D03*
%TD*%
D10*
%TO.P,RV20,1,1_1*%
%TO.N,GND*%
X128292857Y-118391667D03*
%TO.P,RV20,2,2_2*%
%TO.N,/POT_20*%
X128292857Y-115891667D03*
%TO.P,RV20,3,3_3*%
%TO.N,+5V*%
X128292857Y-113391667D03*
D11*
%TO.P,RV20,MP*%
%TO.N,N/C*%
X135292857Y-111491667D03*
X135292857Y-120291667D03*
%TD*%
D10*
%TO.P,RV21,1,1_1*%
%TO.N,GND*%
X156857143Y-118391667D03*
%TO.P,RV21,2,2_2*%
%TO.N,/POT_21*%
X156857143Y-115891667D03*
%TO.P,RV21,3,3_3*%
%TO.N,+5V*%
X156857143Y-113391667D03*
D11*
%TO.P,RV21,MP*%
%TO.N,N/C*%
X163857143Y-111491667D03*
X163857143Y-120291667D03*
%TD*%
D10*
%TO.P,RV2,1,1_1*%
%TO.N,GND*%
X70967857Y-71725000D03*
%TO.P,RV2,2,2_2*%
%TO.N,/POT_2*%
X70967857Y-69225000D03*
%TO.P,RV2,3,3_3*%
%TO.N,+5V*%
X70967857Y-66725000D03*
D11*
%TO.P,RV2,MP*%
%TO.N,N/C*%
X77967857Y-64825000D03*
X77967857Y-73625000D03*
%TD*%
D10*
%TO.P,RV31,1,1_1*%
%TO.N,GND*%
X214003571Y-141725000D03*
%TO.P,RV31,2,2_2*%
%TO.N,/POT_31*%
X214003571Y-139225000D03*
%TO.P,RV31,3,3_3*%
%TO.N,+5V*%
X214003571Y-136725000D03*
D11*
%TO.P,RV31,MP*%
%TO.N,N/C*%
X221003571Y-134825000D03*
X221003571Y-143625000D03*
%TD*%
D10*
%TO.P,RV18,1,1_1*%
%TO.N,GND*%
X71164286Y-118391667D03*
%TO.P,RV18,2,2_2*%
%TO.N,/POT_18*%
X71164286Y-115891667D03*
%TO.P,RV18,3,3_3*%
%TO.N,+5V*%
X71164286Y-113391667D03*
D11*
%TO.P,RV18,MP*%
%TO.N,N/C*%
X78164286Y-111491667D03*
X78164286Y-120291667D03*
%TD*%
D16*
%TO.P,U3,1,NC_1*%
%TO.N,unconnected-(U3-NC-Pad1)*%
X107125000Y-38225000D03*
D17*
%TO.P,U3,2,C1_2*%
%TO.N,Net-(D1-K)*%
X107125000Y-40765000D03*
%TO.P,U3,3,C2_3*%
%TO.N,Net-(D1-A)*%
X107125000Y-43305000D03*
%TO.P,U3,4,NC_4*%
%TO.N,unconnected-(U3-NC-Pad4)*%
X107125000Y-45845000D03*
%TO.P,U3,5,GND_5*%
%TO.N,GND*%
X99505000Y-45845000D03*
%TO.P,U3,6,VO2_6*%
%TO.N,/MIDI_RX*%
X99505000Y-43305000D03*
%TO.P,U3,7,VO1_7*%
%TO.N,unconnected-(U3-VO1-Pad7)*%
X99505000Y-40765000D03*
%TO.P,U3,8,VCC_8*%
%TO.N,+5V*%
X99505000Y-38225000D03*
%TD*%
%TO.P,R3,1*%
%TO.N,Net-(J2-Pad5)*%
X122110000Y-51440000D03*
%TO.P,R3,2*%
%TO.N,/MIDI_TX*%
X122110000Y-36200000D03*
%TD*%
%TO.P,R2,1*%
%TO.N,Net-(J2-Pad4)*%
X83645000Y-52350000D03*
%TO.P,R2,2*%
%TO.N,+5V*%
X68405000Y-52350000D03*
%TD*%
D18*
%TO.P,A1,1,TX1_1*%
%TO.N,/MIDI_TX*%
X218945000Y-41860000D03*
D19*
%TO.P,A1,2,RX1_2*%
%TO.N,/MIDI_RX*%
X221485000Y-41860000D03*
%TO.P,A1,3,~{RESET}_3*%
%TO.N,unconnected-(A1-~{RESET}-Pad3)*%
X224025000Y-41860000D03*
%TO.P,A1,4,GND_4*%
%TO.N,GND*%
X226565000Y-41860000D03*
%TO.P,A1,5,D2_5*%
%TO.N,/MUX_S0*%
X229105000Y-41860000D03*
%TO.P,A1,6,D3_6*%
%TO.N,/MUX_S1*%
X231645000Y-41860000D03*
%TO.P,A1,7,D4_7*%
%TO.N,/MUX_S2*%
X234185000Y-41860000D03*
%TO.P,A1,8,D5_8*%
%TO.N,/MUX_S3*%
X236725000Y-41860000D03*
%TO.P,A1,9,D6_9*%
%TO.N,/ARCH_MODE*%
X239265000Y-41860000D03*
%TO.P,A1,10,D7_10*%
%TO.N,/GLITCH_TRG*%
X241805000Y-41860000D03*
%TO.P,A1,11,D8_11*%
%TO.N,unconnected-(A1-D8-Pad11)*%
X244345000Y-41860000D03*
%TO.P,A1,12,D9_12*%
%TO.N,unconnected-(A1-D9-Pad12)*%
X246885000Y-41860000D03*
%TO.P,A1,13,D10_13*%
%TO.N,unconnected-(A1-D10-Pad13)*%
X249425000Y-41860000D03*
%TO.P,A1,14,MOSI_14*%
%TO.N,unconnected-(A1-MOSI-Pad14)*%
X251965000Y-41860000D03*
%TO.P,A1,15,MISO_15*%
%TO.N,unconnected-(A1-MISO-Pad15)*%
X254505000Y-41860000D03*
%TO.P,A1,16,SCK_16*%
%TO.N,unconnected-(A1-SCK-Pad16)*%
X254505000Y-57100000D03*
%TO.P,A1,17,3V3_17*%
%TO.N,unconnected-(A1-3V3-Pad17)*%
X251965000Y-57100000D03*
%TO.P,A1,18,AREF_18*%
%TO.N,unconnected-(A1-AREF-Pad18)*%
X249425000Y-57100000D03*
%TO.P,A1,19,A0_19*%
%TO.N,/MUX_A_OUT*%
X246885000Y-57100000D03*
%TO.P,A1,20,A1_20*%
%TO.N,/MUX_B_OUT*%
X244345000Y-57100000D03*
%TO.P,A1,21,A2_21*%
%TO.N,unconnected-(A1-A2-Pad21)*%
X241805000Y-57100000D03*
%TO.P,A1,22,A3_22*%
%TO.N,unconnected-(A1-A3-Pad22)*%
X239265000Y-57100000D03*
%TO.P,A1,23,SDA/A4_23*%
%TO.N,/SDA*%
X236725000Y-57100000D03*
%TO.P,A1,24,SCL/A5_24*%
%TO.N,/SCL*%
X234185000Y-57100000D03*
%TO.P,A1,25,A6_25*%
%TO.N,unconnected-(A1-A6-Pad25)*%
X231645000Y-57100000D03*
%TO.P,A1,26,A7_26*%
%TO.N,unconnected-(A1-A7-Pad26)*%
X229105000Y-57100000D03*
%TO.P,A1,27,+5V_27*%
%TO.N,+5V*%
X226565000Y-57100000D03*
%TO.P,A1,28,~{RESET}_28*%
%TO.N,unconnected-(A1-~{RESET}-Pad28)*%
X224025000Y-57100000D03*
%TO.P,A1,29,GND_29*%
%TO.N,GND*%
X221485000Y-57100000D03*
%TO.P,A1,30,VIN_30*%
%TO.N,unconnected-(A1-VIN-Pad30)*%
X218945000Y-57100000D03*
%TD*%
D20*
%TO.P,J2,1*%
%TO.N,unconnected-(J2-Pad1)*%
X58566600Y-46524050D03*
%TO.P,J2,2*%
%TO.N,GND*%
X51066600Y-46524050D03*
%TO.P,J2,3*%
%TO.N,unconnected-(J2-Pad3)*%
X43566600Y-46524050D03*
%TO.P,J2,4*%
%TO.N,Net-(J2-Pad4)*%
X56066600Y-49024050D03*
%TO.P,J2,5*%
%TO.N,Net-(J2-Pad5)*%
X46066600Y-49024050D03*
%TD*%
D17*
%TO.P,R7,1*%
%TO.N,/GLITCH_TRG*%
X209265000Y-37000000D03*
%TO.P,R7,2*%
%TO.N,GND*%
X194025000Y-37000000D03*
%TD*%
D16*
%TO.P,C1,1*%
%TO.N,+5V*%
X205300000Y-72000000D03*
D17*
%TO.P,C1,2*%
%TO.N,GND*%
X202800000Y-72000000D03*
%TD*%
D20*
%TO.P,J1,1*%
%TO.N,unconnected-(J1-Pad1)*%
X83816600Y-46549050D03*
%TO.P,J1,2*%
%TO.N,unconnected-(J1-Pad2)*%
X76316600Y-46549050D03*
%TO.P,J1,3*%
%TO.N,unconnected-(J1-Pad3)*%
X68816600Y-46549050D03*
%TO.P,J1,4*%
%TO.N,Net-(J1-Pad4)*%
X81316600Y-49049050D03*
%TO.P,J1,5*%
%TO.N,Net-(D1-A)*%
X71316600Y-49049050D03*
%TD*%
D17*
%TO.P,R4,1*%
%TO.N,+5V*%
X93125000Y-36605000D03*
%TO.P,R4,2*%
%TO.N,/MIDI_RX*%
X93125000Y-51845000D03*
%TD*%
D21*
%TO.P,D1,1,K_1*%
%TO.N,Net-(D1-K)*%
X112125000Y-37605000D03*
D17*
%TO.P,D1,2,A_2*%
%TO.N,Net-(D1-A)*%
X112125000Y-45225000D03*
%TD*%
D16*
%TO.P,C3,1*%
%TO.N,+5V*%
X228680113Y-36675000D03*
D17*
%TO.P,C3,2*%
%TO.N,GND*%
X226680113Y-36675000D03*
%TD*%
D16*
%TO.P,C2,1*%
%TO.N,+5V*%
X224625000Y-104225000D03*
D17*
%TO.P,C2,2*%
%TO.N,GND*%
X222125000Y-104225000D03*
%TD*%
%TO.P,R1,1*%
%TO.N,Net-(D1-K)*%
X117125000Y-51845000D03*
%TO.P,R1,2*%
%TO.N,Net-(J1-Pad4)*%
X117125000Y-36605000D03*
%TD*%
%TO.N,GND*%
D22*
X71146429Y-95058333D02*
X71146429Y-100203571D01*
X185432143Y-141725000D02*
X185432143Y-147632143D01*
D23*
X70625000Y-78225000D02*
X99625000Y-78225000D01*
X43125000Y-123225000D02*
X71625000Y-123225000D01*
D22*
X42600000Y-118391667D02*
X42600000Y-122700000D01*
D24*
X39025000Y-60025000D02*
X123625000Y-60025000D01*
D22*
X123830113Y-59819887D02*
X123625000Y-60025000D01*
X242575000Y-141725000D02*
X242575000Y-147675000D01*
X128289286Y-99889286D02*
X128625000Y-100225000D01*
X185539286Y-71725000D02*
X185539286Y-78139286D01*
X42575000Y-100175000D02*
X42625000Y-100225000D01*
X99610714Y-78210714D02*
X99625000Y-78225000D01*
D23*
X42625000Y-100225000D02*
X71125000Y-100225000D01*
D22*
X214003571Y-141725000D02*
X214003571Y-147603571D01*
X156857143Y-118391667D02*
X156857143Y-122992857D01*
X242575000Y-95058333D02*
X242575000Y-100175000D01*
X51066600Y-46524050D02*
X52575000Y-48032450D01*
X123830113Y-54829887D02*
X131125000Y-47535000D01*
D24*
X38725000Y-123225000D02*
X38725000Y-100225000D01*
D22*
X214003571Y-95058333D02*
X214003571Y-100103571D01*
D23*
X99625000Y-78225000D02*
X156625000Y-78225000D01*
D22*
X99717857Y-147632143D02*
X99625000Y-147725000D01*
X42575000Y-141725000D02*
X38725000Y-141725000D01*
D24*
X38725000Y-147425000D02*
X38725000Y-141725000D01*
D23*
X185525000Y-147725000D02*
X156825000Y-147725000D01*
D22*
X99728571Y-123121429D02*
X99625000Y-123225000D01*
X214003571Y-147603571D02*
X214125000Y-147725000D01*
D23*
X185625000Y-78225000D02*
X202675000Y-78225000D01*
X99625000Y-147725000D02*
X71025000Y-147725000D01*
D22*
X242260635Y-40760000D02*
X242905000Y-41404365D01*
X214182143Y-78167857D02*
X214125000Y-78225000D01*
D23*
X202675000Y-78225000D02*
X214125000Y-78225000D01*
D22*
X227665000Y-40760000D02*
X242260635Y-40760000D01*
X156860714Y-147689286D02*
X156825000Y-147725000D01*
X123830113Y-56225000D02*
X123830113Y-54829887D01*
X156896429Y-71725000D02*
X156896429Y-77953571D01*
X232100635Y-56000000D02*
X222585000Y-56000000D01*
X71164286Y-122764286D02*
X71625000Y-123225000D01*
D23*
X38725000Y-78175000D02*
X38775000Y-78225000D01*
D22*
X213985714Y-118391667D02*
X213985714Y-122864286D01*
X242550000Y-123150000D02*
X242625000Y-123225000D01*
X99728571Y-118391667D02*
X99728571Y-123121429D01*
X71164286Y-118391667D02*
X71164286Y-122764286D01*
D23*
X100025000Y-147725000D02*
X99625000Y-147725000D01*
D24*
X38725000Y-100225000D02*
X38725000Y-60325000D01*
D22*
X238165000Y-57215635D02*
X237180635Y-58200000D01*
X52575000Y-48032450D02*
X52575000Y-60075000D01*
X42600000Y-122700000D02*
X43125000Y-123225000D01*
X185432143Y-95058333D02*
X185432143Y-99917857D01*
X226680113Y-36675000D02*
X226680113Y-41744887D01*
D23*
X38725000Y-123225000D02*
X43125000Y-123225000D01*
D22*
X222125000Y-104225000D02*
X222125000Y-100225000D01*
X128292857Y-123057143D02*
X128125000Y-123225000D01*
X242550000Y-118391667D02*
X242550000Y-123150000D01*
X185421429Y-122928571D02*
X185125000Y-123225000D01*
X71146429Y-100203571D02*
X71125000Y-100225000D01*
X242905000Y-51904365D02*
X238165000Y-56644365D01*
X156896429Y-77953571D02*
X156625000Y-78225000D01*
D23*
X128725000Y-147725000D02*
X100025000Y-147725000D01*
D22*
X242575000Y-100175000D02*
X242625000Y-100225000D01*
X221485000Y-59885000D02*
X221625000Y-60025000D01*
X156857143Y-122992857D02*
X156625000Y-123225000D01*
X202800000Y-78100000D02*
X202675000Y-78225000D01*
X196690000Y-37000000D02*
X201125000Y-41435000D01*
X71146429Y-147603571D02*
X71025000Y-147725000D01*
D23*
X242625000Y-147725000D02*
X214125000Y-147725000D01*
D22*
X202800000Y-72000000D02*
X202800000Y-78100000D01*
D23*
X99625000Y-123225000D02*
X128125000Y-123225000D01*
D22*
X42325000Y-77925000D02*
X42325000Y-71725000D01*
D23*
X71025000Y-147725000D02*
X39025000Y-147725000D01*
X222125000Y-100225000D02*
X242625000Y-100225000D01*
D22*
X213985714Y-122864286D02*
X213625000Y-123225000D01*
D23*
X156625000Y-78225000D02*
X185625000Y-78225000D01*
X38725000Y-100225000D02*
X42625000Y-100225000D01*
D22*
X185432143Y-147632143D02*
X185525000Y-147725000D01*
X42025000Y-78225000D02*
X42325000Y-77925000D01*
X232745000Y-57555635D02*
X232745000Y-56644365D01*
X128289286Y-141725000D02*
X128289286Y-147289286D01*
D23*
X71125000Y-100225000D02*
X99625000Y-100225000D01*
D22*
X222585000Y-56000000D02*
X221485000Y-57100000D01*
X70967857Y-71725000D02*
X70967857Y-77882143D01*
X214182143Y-71725000D02*
X214182143Y-78167857D01*
X71146429Y-141725000D02*
X71146429Y-147603571D01*
D23*
X214125000Y-100225000D02*
X221125000Y-100225000D01*
D22*
X185432143Y-99917857D02*
X185125000Y-100225000D01*
D24*
X221485000Y-57100000D02*
X221485000Y-59885000D01*
D22*
X99717857Y-141725000D02*
X99717857Y-147632143D01*
X99610714Y-71725000D02*
X99610714Y-78210714D01*
X226680113Y-41744887D02*
X226565000Y-41860000D01*
D23*
X128125000Y-123225000D02*
X156625000Y-123225000D01*
D22*
X242905000Y-41404365D02*
X242905000Y-51904365D01*
D23*
X213625000Y-123225000D02*
X242625000Y-123225000D01*
D22*
X185539286Y-78139286D02*
X185625000Y-78225000D01*
D24*
X38725000Y-60325000D02*
X39025000Y-60025000D01*
D22*
X99717857Y-95058333D02*
X99717857Y-100132143D01*
X232745000Y-56644365D02*
X232100635Y-56000000D01*
X214003571Y-100103571D02*
X214125000Y-100225000D01*
X185421429Y-118391667D02*
X185421429Y-122928571D01*
D23*
X156625000Y-100225000D02*
X185125000Y-100225000D01*
X128625000Y-100225000D02*
X156625000Y-100225000D01*
D24*
X123625000Y-60025000D02*
X221750000Y-60025000D01*
D22*
X128292857Y-118391667D02*
X128292857Y-123057143D01*
X156860714Y-95058333D02*
X156860714Y-99989286D01*
D23*
X38775000Y-78225000D02*
X70625000Y-78225000D01*
X185125000Y-123225000D02*
X213625000Y-123225000D01*
X71625000Y-123225000D02*
X99625000Y-123225000D01*
D22*
X237180635Y-58200000D02*
X233389365Y-58200000D01*
X128289286Y-95058333D02*
X128289286Y-99889286D01*
X156860714Y-99989286D02*
X156625000Y-100225000D01*
D23*
X221125000Y-100225000D02*
X222125000Y-100225000D01*
X185125000Y-100225000D02*
X187625000Y-100225000D01*
D22*
X242575000Y-147675000D02*
X242625000Y-147725000D01*
X156860714Y-141725000D02*
X156860714Y-147689286D01*
X238165000Y-56644365D02*
X238165000Y-57215635D01*
D24*
X38725000Y-141725000D02*
X38725000Y-123225000D01*
D22*
X194025000Y-37000000D02*
X196690000Y-37000000D01*
D23*
X242775000Y-78225000D02*
X214125000Y-78225000D01*
X99625000Y-100225000D02*
X128625000Y-100225000D01*
D22*
X128289286Y-147289286D02*
X128725000Y-147725000D01*
D23*
X187625000Y-100225000D02*
X214125000Y-100225000D01*
X214125000Y-147725000D02*
X185525000Y-147725000D01*
D22*
X42575000Y-95058333D02*
X42575000Y-100175000D01*
X123830113Y-56225000D02*
X123830113Y-59819887D01*
D23*
X156625000Y-123225000D02*
X185125000Y-123225000D01*
D22*
X242825000Y-78025000D02*
X242825000Y-71725000D01*
X99717857Y-100132143D02*
X99625000Y-100225000D01*
X233389365Y-58200000D02*
X232745000Y-57555635D01*
D23*
X39025000Y-147725000D02*
X38725000Y-147425000D01*
X156825000Y-147725000D02*
X128725000Y-147725000D01*
D22*
X70967857Y-77882143D02*
X70625000Y-78225000D01*
X226565000Y-41860000D02*
X227665000Y-40760000D01*
%TO.N,+5V*%
D23*
X185625000Y-84725000D02*
X157125000Y-84725000D01*
D22*
X99717857Y-130817857D02*
X99625000Y-130725000D01*
X99610714Y-66725000D02*
X99610714Y-61939286D01*
X128289286Y-136725000D02*
X128289286Y-130889286D01*
D23*
X42600000Y-109250000D02*
X42600000Y-113391667D01*
D22*
X214003571Y-136725000D02*
X214003571Y-130846429D01*
X103405000Y-34325000D02*
X99505000Y-38225000D01*
D23*
X259100000Y-130750000D02*
X242650000Y-130750000D01*
D22*
X259125000Y-43525000D02*
X259125000Y-61725000D01*
D23*
X156875000Y-130725000D02*
X128125000Y-130725000D01*
D22*
X156896429Y-66725000D02*
X156896429Y-61753571D01*
D23*
X99625000Y-130725000D02*
X71125000Y-130725000D01*
D22*
X156860714Y-84989286D02*
X157125000Y-84725000D01*
X242575000Y-84775000D02*
X242625000Y-84725000D01*
X156857143Y-113391667D02*
X156857143Y-108457143D01*
D23*
X214125000Y-84725000D02*
X185625000Y-84725000D01*
D22*
X185539286Y-61810714D02*
X185625000Y-61725000D01*
D23*
X42625000Y-109225000D02*
X42600000Y-109250000D01*
D22*
X156896429Y-61753571D02*
X156925000Y-61725000D01*
X99717857Y-136725000D02*
X99717857Y-130817857D01*
D23*
X223625000Y-108225000D02*
X214125000Y-108225000D01*
D22*
X156860714Y-90058333D02*
X156860714Y-84989286D01*
X70967857Y-61982143D02*
X71225000Y-61725000D01*
X224625000Y-104225000D02*
X224625000Y-108225000D01*
D23*
X71125000Y-84725000D02*
X71146429Y-84746429D01*
D22*
X180125000Y-41725000D02*
X176300000Y-37900000D01*
X242550000Y-113391667D02*
X242550000Y-108650000D01*
X185432143Y-84917857D02*
X185625000Y-84725000D01*
X185432143Y-130917857D02*
X185625000Y-130725000D01*
X185421429Y-108428571D02*
X185625000Y-108225000D01*
X242575000Y-136725000D02*
X242575000Y-130775000D01*
X70967857Y-66725000D02*
X70967857Y-61982143D01*
X213985714Y-113391667D02*
X213985714Y-108364286D01*
D23*
X99625000Y-108225000D02*
X71125000Y-108225000D01*
D25*
X42575000Y-131275000D02*
X42575000Y-136725000D01*
D23*
X128125000Y-130725000D02*
X99625000Y-130725000D01*
X214125000Y-130725000D02*
X185625000Y-130725000D01*
X43125000Y-130725000D02*
X42575000Y-131275000D01*
X128125000Y-84725000D02*
X128289286Y-84889286D01*
X259125000Y-130725000D02*
X259100000Y-130750000D01*
D22*
X156860714Y-136725000D02*
X156860714Y-130739286D01*
X252275000Y-36675000D02*
X259125000Y-43525000D01*
D23*
X242625000Y-84725000D02*
X214125000Y-84725000D01*
D22*
X185421429Y-113391667D02*
X185421429Y-108428571D01*
D24*
X227125000Y-61725000D02*
X243425000Y-61725000D01*
D23*
X128625000Y-108225000D02*
X99625000Y-108225000D01*
D22*
X128289286Y-130889286D02*
X128125000Y-130725000D01*
D23*
X71146429Y-130746429D02*
X71146429Y-136725000D01*
D22*
X185432143Y-136725000D02*
X185432143Y-130917857D01*
D23*
X99825000Y-61725000D02*
X71225000Y-61725000D01*
X71125000Y-130725000D02*
X71146429Y-130746429D01*
D22*
X228680113Y-36675000D02*
X252275000Y-36675000D01*
X99717857Y-84817857D02*
X99625000Y-84725000D01*
D23*
X156625000Y-108225000D02*
X128625000Y-108225000D01*
X185625000Y-130725000D02*
X156875000Y-130725000D01*
X227125000Y-61725000D02*
X226550000Y-61725000D01*
D24*
X259125000Y-61725000D02*
X259125000Y-84725000D01*
D22*
X213985714Y-108364286D02*
X214125000Y-108225000D01*
D24*
X226565000Y-57100000D02*
X226565000Y-61710000D01*
D23*
X242625000Y-130725000D02*
X214125000Y-130725000D01*
D22*
X99610714Y-61939286D02*
X99825000Y-61725000D01*
D23*
X99625000Y-108225000D02*
X99625000Y-109225000D01*
X99728571Y-109328571D02*
X99728571Y-113391667D01*
D22*
X128253571Y-66725000D02*
X128253571Y-61753571D01*
D23*
X71164286Y-108764286D02*
X71164286Y-113391667D01*
X128625000Y-108225000D02*
X128292857Y-108557143D01*
X224625000Y-108225000D02*
X223625000Y-108225000D01*
X226550000Y-61725000D02*
X214225000Y-61725000D01*
D25*
X42575000Y-84775000D02*
X42575000Y-90058333D01*
D23*
X259125000Y-108225000D02*
X242125000Y-108225000D01*
D22*
X228680113Y-36675000D02*
X226330113Y-34325000D01*
D23*
X71125000Y-108225000D02*
X42625000Y-108225000D01*
D22*
X185432143Y-90058333D02*
X185432143Y-84917857D01*
X185539286Y-66725000D02*
X185539286Y-61810714D01*
X156860714Y-130739286D02*
X156875000Y-130725000D01*
X226330113Y-34325000D02*
X103405000Y-34325000D01*
D23*
X99625000Y-84725000D02*
X71125000Y-84725000D01*
X157125000Y-84725000D02*
X128125000Y-84725000D01*
X128125000Y-84725000D02*
X99625000Y-84725000D01*
D22*
X242575000Y-130775000D02*
X242625000Y-130725000D01*
X42425000Y-61725000D02*
X42325000Y-61825000D01*
D23*
X71225000Y-61725000D02*
X42425000Y-61725000D01*
D22*
X186625000Y-41725000D02*
X180125000Y-41725000D01*
D25*
X128289286Y-84889286D02*
X128289286Y-90058333D01*
D22*
X242825000Y-62325000D02*
X243425000Y-61725000D01*
X127800000Y-37900000D02*
X127800000Y-41670000D01*
X42325000Y-61825000D02*
X42325000Y-66725000D01*
D23*
X71125000Y-84725000D02*
X42625000Y-84725000D01*
D22*
X205300000Y-61775000D02*
X205250000Y-61725000D01*
X242550000Y-108650000D02*
X242125000Y-108225000D01*
D24*
X243425000Y-61725000D02*
X259125000Y-61725000D01*
X259125000Y-108225000D02*
X259050000Y-108300000D01*
D23*
X242650000Y-130750000D02*
X242625000Y-130725000D01*
X71125000Y-130725000D02*
X43125000Y-130725000D01*
X242125000Y-108225000D02*
X224625000Y-108225000D01*
D22*
X176300000Y-37900000D02*
X127800000Y-37900000D01*
D23*
X42625000Y-84725000D02*
X42575000Y-84775000D01*
X156925000Y-61725000D02*
X128225000Y-61725000D01*
X214225000Y-61725000D02*
X205250000Y-61725000D01*
X190125000Y-108225000D02*
X185625000Y-108225000D01*
D22*
X214003571Y-130846429D02*
X214125000Y-130725000D01*
D24*
X259050000Y-108300000D02*
X259050000Y-130525000D01*
D22*
X205300000Y-72000000D02*
X205300000Y-61775000D01*
X214182143Y-66725000D02*
X214182143Y-61767857D01*
X214182143Y-61767857D02*
X214225000Y-61725000D01*
X214003571Y-90058333D02*
X214003571Y-84846429D01*
D23*
X205250000Y-61725000D02*
X185625000Y-61725000D01*
D22*
X99505000Y-38225000D02*
X94745000Y-38225000D01*
X99717857Y-90058333D02*
X99717857Y-84817857D01*
D24*
X259125000Y-84725000D02*
X259125000Y-108225000D01*
D22*
X127800000Y-41670000D02*
X131125000Y-44995000D01*
D23*
X71125000Y-108225000D02*
X71125000Y-108725000D01*
X42625000Y-108225000D02*
X42625000Y-109225000D01*
X99625000Y-109225000D02*
X99728571Y-109328571D01*
D22*
X242825000Y-66725000D02*
X242825000Y-62325000D01*
X242575000Y-90058333D02*
X242575000Y-84775000D01*
D25*
X71146429Y-84746429D02*
X71146429Y-90058333D01*
D23*
X128292857Y-108557143D02*
X128292857Y-113391667D01*
X128225000Y-61725000D02*
X99825000Y-61725000D01*
D22*
X94745000Y-38225000D02*
X93125000Y-36605000D01*
D23*
X185625000Y-61725000D02*
X156925000Y-61725000D01*
X214125000Y-108225000D02*
X190125000Y-108225000D01*
D22*
X214003571Y-84846429D02*
X214125000Y-84725000D01*
X156857143Y-108457143D02*
X156625000Y-108225000D01*
X226565000Y-61710000D02*
X226550000Y-61725000D01*
D23*
X71125000Y-108725000D02*
X71164286Y-108764286D01*
X259125000Y-84725000D02*
X242625000Y-84725000D01*
X185625000Y-108225000D02*
X156625000Y-108225000D01*
D22*
X128253571Y-61753571D02*
X128225000Y-61725000D01*
%TO.N,/GLITCH_TRG*%
X190265000Y-42585000D02*
X186625000Y-46225000D01*
X241805000Y-41860000D02*
X238440000Y-45225000D01*
X203680000Y-42585000D02*
X190265000Y-42585000D01*
X238440000Y-45225000D02*
X187625000Y-45225000D01*
X187625000Y-45225000D02*
X186625000Y-46225000D01*
X209265000Y-37000000D02*
X203680000Y-42585000D01*
%TO.N,/ARCH_MODE*%
X239265000Y-41860000D02*
X237150000Y-43975000D01*
X201125000Y-43975000D02*
X237150000Y-43975000D01*
%TO.N,Net-(D1-K)*%
X112125000Y-37605000D02*
X110285000Y-37605000D01*
X117125000Y-48669365D02*
X109220635Y-40765000D01*
X109220635Y-40765000D02*
X107125000Y-40765000D01*
X110285000Y-37605000D02*
X107125000Y-40765000D01*
X117125000Y-51845000D02*
X117125000Y-48669365D01*
%TO.N,Net-(D1-A)*%
X111125000Y-45225000D02*
X109205000Y-43305000D01*
X109205000Y-43305000D02*
X107125000Y-43305000D01*
X112125000Y-45225000D02*
X111125000Y-45225000D01*
%TO.N,/MIDI_RX*%
X93125000Y-49685000D02*
X99505000Y-43305000D01*
X122834314Y-34950000D02*
X122859315Y-34925000D01*
X214575000Y-34950000D02*
X221485000Y-41860000D01*
X122859315Y-34925000D02*
X212575686Y-34925000D01*
X107860000Y-34950000D02*
X122834314Y-34950000D01*
X212575686Y-34925000D02*
X212600685Y-34950000D01*
X212600685Y-34950000D02*
X214575000Y-34950000D01*
X99505000Y-43305000D02*
X107860000Y-34950000D01*
X93125000Y-51845000D02*
X93125000Y-49685000D01*
%TO.N,Net-(J2-Pad5)*%
X88565001Y-50665001D02*
X91125000Y-53225000D01*
X120365000Y-53225000D02*
X122125000Y-51465000D01*
X46066600Y-49024050D02*
X49768300Y-45322350D01*
X86233090Y-50665001D02*
X88565001Y-50665001D01*
X49768300Y-45322350D02*
X80890439Y-45322350D01*
X80890439Y-45322350D02*
X86233090Y-50665001D01*
X91125000Y-53225000D02*
X120365000Y-53225000D01*
%TO.N,/MIDI_TX*%
X123025000Y-35325000D02*
X122125000Y-36225000D01*
X218945000Y-41860000D02*
X212410000Y-35325000D01*
X212410000Y-35325000D02*
X123025000Y-35325000D01*
%TO.N,Net-(J2-Pad4)*%
X56066600Y-49024050D02*
X56066600Y-50677970D01*
X56066600Y-50677970D02*
X56313630Y-50925000D01*
X82220000Y-50925000D02*
X83645000Y-52350000D01*
X56313630Y-50925000D02*
X82220000Y-50925000D01*
%TO.N,/SDA*%
X138315000Y-39915000D02*
X150625000Y-52225000D01*
X236725000Y-55045000D02*
X236725000Y-57100000D01*
X131125000Y-39915000D02*
X138315000Y-39915000D01*
X150625000Y-52225000D02*
X233905000Y-52225000D01*
X233905000Y-52225000D02*
X236725000Y-55045000D01*
%TO.N,/SCL*%
X137595000Y-42455000D02*
X148465000Y-53325000D01*
X234185000Y-55810000D02*
X234185000Y-57100000D01*
X231700000Y-53325000D02*
X234185000Y-55810000D01*
X131125000Y-42455000D02*
X137595000Y-42455000D01*
X148465000Y-53325000D02*
X231700000Y-53325000D01*
%TD*%
M02*
