M48
; DRILL file KiCad 10.0.3 date 2026-06-30T05:56:51
; FORMAT={-:-/ absolute / metric / decimal}
; #@! TF.CreationDate,2026-06-30T05:56:51-04:00
; #@! TF.GenerationSoftware,Kicad,Pcbnew,10.0.3
; #@! TF.FileFunction,Plated,1,2,PTH
FMAT,2
METRIC
; #@! TA.AperFunction,Plated,PTH,ComponentDrill
T1C0.800
; #@! TA.AperFunction,Plated,PTH,ComponentDrill
T2C1.000
; #@! TA.AperFunction,Plated,PTH,ComponentDrill
T3C1.100
; #@! TA.AperFunction,Plated,PTH,ComponentDrill
T4C1.295
; #@! TA.AperFunction,Plated,PTH,ComponentDrill
T5C2.200
%
G90
G05
T1
X68.405Y-52.35
X83.645Y-52.35
X93.125Y-36.605
X93.125Y-51.845
X99.505Y-38.225
X99.505Y-40.765
X99.505Y-43.305
X99.505Y-45.845
X107.125Y-38.225
X107.125Y-40.765
X107.125Y-43.305
X107.125Y-45.845
X112.125Y-37.605
X112.125Y-45.225
X117.125Y-36.605
X117.125Y-51.845
X122.11Y-36.2
X122.11Y-51.44
X194.025Y-37.0
X202.8Y-72.0
X205.3Y-72.0
X209.265Y-37.0
X222.125Y-104.225
X224.625Y-104.225
X226.68Y-36.675
X228.68Y-36.675
T2
X42.325Y-66.725
X42.325Y-69.225
X42.325Y-71.725
X42.575Y-90.058
X42.575Y-92.558
X42.575Y-95.058
X42.575Y-136.725
X42.575Y-139.225
X42.575Y-141.725
X42.6Y-113.392
X42.6Y-115.892
X42.6Y-118.392
X70.968Y-66.725
X70.968Y-69.225
X70.968Y-71.725
X71.146Y-90.058
X71.146Y-92.558
X71.146Y-95.058
X71.146Y-136.725
X71.146Y-139.225
X71.146Y-141.725
X71.164Y-113.392
X71.164Y-115.892
X71.164Y-118.392
X99.611Y-66.725
X99.611Y-69.225
X99.611Y-71.725
X99.718Y-90.058
X99.718Y-92.558
X99.718Y-95.058
X99.718Y-136.725
X99.718Y-139.225
X99.718Y-141.725
X99.729Y-113.392
X99.729Y-115.892
X99.729Y-118.392
X128.254Y-66.725
X128.254Y-69.225
X128.254Y-71.725
X128.289Y-90.058
X128.289Y-92.558
X128.289Y-95.058
X128.289Y-136.725
X128.289Y-139.225
X128.289Y-141.725
X128.293Y-113.392
X128.293Y-115.892
X128.293Y-118.392
X131.125Y-39.915
X131.125Y-42.455
X131.125Y-44.995
X131.125Y-47.535
X156.857Y-113.392
X156.857Y-115.892
X156.857Y-118.392
X156.861Y-90.058
X156.861Y-92.558
X156.861Y-95.058
X156.861Y-136.725
X156.861Y-139.225
X156.861Y-141.725
X156.896Y-66.725
X156.896Y-69.225
X156.896Y-71.725
X185.421Y-113.392
X185.421Y-115.892
X185.421Y-118.392
X185.432Y-90.058
X185.432Y-92.558
X185.432Y-95.058
X185.432Y-136.725
X185.432Y-139.225
X185.432Y-141.725
X185.539Y-66.725
X185.539Y-69.225
X185.539Y-71.725
X201.125Y-41.435
X201.125Y-43.975
X201.125Y-46.515
X213.986Y-113.392
X213.986Y-115.892
X213.986Y-118.392
X214.004Y-90.058
X214.004Y-92.558
X214.004Y-95.058
X214.004Y-136.725
X214.004Y-139.225
X214.004Y-141.725
X214.182Y-66.725
X214.182Y-69.225
X214.182Y-71.725
X218.945Y-41.86
X218.945Y-57.1
X221.485Y-41.86
X221.485Y-57.1
X224.025Y-41.86
X224.025Y-57.1
X226.565Y-41.86
X226.565Y-57.1
X229.105Y-41.86
X229.105Y-57.1
X231.645Y-41.86
X231.645Y-57.1
X234.185Y-41.86
X234.185Y-57.1
X236.725Y-41.86
X236.725Y-57.1
X239.265Y-41.86
X239.265Y-57.1
X241.805Y-41.86
X241.805Y-57.1
X242.55Y-113.392
X242.55Y-115.892
X242.55Y-118.392
X242.575Y-90.058
X242.575Y-92.558
X242.575Y-95.058
X242.575Y-136.725
X242.575Y-139.225
X242.575Y-141.725
X242.825Y-66.725
X242.825Y-69.225
X242.825Y-71.725
X244.345Y-41.86
X244.345Y-57.1
X246.885Y-41.86
X246.885Y-57.1
X249.425Y-41.86
X249.425Y-57.1
X251.965Y-41.86
X251.965Y-57.1
X254.505Y-41.86
X254.505Y-57.1
T3
X180.125Y-41.725
X180.125Y-46.225
X186.625Y-41.725
X186.625Y-46.225
T4
X43.567Y-46.524
X46.067Y-49.024
X51.067Y-46.524
X56.067Y-49.024
X58.567Y-46.524
X68.817Y-46.549
X71.317Y-49.049
X76.317Y-46.549
X81.317Y-49.049
X83.817Y-46.549
T5
X49.325Y-64.825
X49.325Y-73.625
X49.575Y-88.158
X49.575Y-96.958
X49.575Y-134.825
X49.575Y-143.625
X49.6Y-111.492
X49.6Y-120.292
X77.968Y-64.825
X77.968Y-73.625
X78.146Y-88.158
X78.146Y-96.958
X78.146Y-134.825
X78.146Y-143.625
X78.164Y-111.492
X78.164Y-120.292
X106.611Y-64.825
X106.611Y-73.625
X106.718Y-88.158
X106.718Y-96.958
X106.718Y-134.825
X106.718Y-143.625
X106.729Y-111.492
X106.729Y-120.292
X135.254Y-64.825
X135.254Y-73.625
X135.289Y-88.158
X135.289Y-96.958
X135.289Y-134.825
X135.289Y-143.625
X135.293Y-111.492
X135.293Y-120.292
X163.857Y-111.492
X163.857Y-120.292
X163.861Y-88.158
X163.861Y-96.958
X163.861Y-134.825
X163.861Y-143.625
X163.896Y-64.825
X163.896Y-73.625
X192.421Y-111.492
X192.421Y-120.292
X192.432Y-88.158
X192.432Y-96.958
X192.432Y-134.825
X192.432Y-143.625
X192.539Y-64.825
X192.539Y-73.625
X220.986Y-111.492
X220.986Y-120.292
X221.004Y-88.158
X221.004Y-96.958
X221.004Y-134.825
X221.004Y-143.625
X221.182Y-64.825
X221.182Y-73.625
X249.55Y-111.492
X249.55Y-120.292
X249.575Y-88.158
X249.575Y-96.958
X249.575Y-134.825
X249.575Y-143.625
X249.825Y-64.825
X249.825Y-73.625
M30
